<?xml version="1.0" standalone="no"?><!DOCTYPE svg PUBLIC "-//W3C//DTD SVG 1.1//EN" "http://www.w3.org/Graphics/SVG/1.1/DTD/svg11.dtd"><svg t="1581656357417" class="icon" viewBox="0 0 1024 1024" version="1.1" xmlns="http://www.w3.org/2000/svg" p-id="3365" xmlns:xlink="http://www.w3.org/1999/xlink" width="30" height="30"><defs><style type="text/css"></style></defs><path d="M511.969 64.144c247.771 0 448.634 200.863 448.634 448.634 0 247.79-200.863 448.653-448.634 448.653-247.773 0-448.636-200.863-448.636-448.653 0-247.771 200.864-448.634 448.636-448.634z m-73.576 315.432a188.78 188.78 0 0 1 46.285-18.467l-55.584-220.382a421.261 421.261 0 0 0-100.291 35.209l109.59 203.64z m73.576 30.742c-56.587 0-102.462 45.875-102.462 102.46 0 56.587 45.875 102.478 102.462 102.478s102.46-45.891 102.46-102.478c0-56.585-45.873-102.46-102.46-102.46z m105.549 212.101a189.322 189.322 0 0 1-39.925 29.805l110.724 198.498a421.172 421.172 0 0 0 87.772-59.972L617.518 622.419z m273.19-29.672l-221.992-57.524a191.746 191.746 0 0 1-26.502 57.753l181.278 143.472a425.609 425.609 0 0 0 67.216-143.701zM166.846 337.531l199.533 113.026a191.38 191.38 0 0 1 40.55-48.93L268.961 216.126a425.029 425.029 0 0 0-102.115 121.405z" p-id="3366"></path></svg>