<?xml version="1.0" standalone="no"?><!DOCTYPE svg PUBLIC "-//W3C//DTD SVG 1.1//EN" "http://www.w3.org/Graphics/SVG/1.1/DTD/svg11.dtd"><svg t="1581769947918" class="icon" viewBox="0 0 1336 1024" version="1.1" xmlns="http://www.w3.org/2000/svg" p-id="10620" width="39.140625" height="30" xmlns:xlink="http://www.w3.org/1999/xlink"><defs><style type="text/css"></style></defs><path d="M824.888889 113.863111V57.287111c0-31.488 19.000889-39.765333 41.955555-18.887111l92.16 83.825778c11.52 10.496 11.662222 27.392 0 38.030222l-92.16 83.797333C843.662222 265.130667 824.888889 256.711111 824.888889 225.166222v-54.613333a28.814222 28.814222 0 0 1-2.360889 0.113778H455.139556C235.093333 170.666667 56.888889 348.899556 56.888889 568.888889c0 219.960889 178.289778 398.222222 398.279111 398.222222h454.997333a398.336 398.336 0 0 0 364.487111-237.397333 28.444444 28.444444 0 0 1 52.024889 22.983111A455.224889 455.224889 0 0 1 910.165333 1024H455.168C203.776 1024 0 820.280889 0 568.888889 0 317.496889 203.662222 113.777778 455.111111 113.777778h367.416889c0.796444 0 1.592889 0.028444 2.360889 0.085333z m-144.156445 300.743111h40.049778V739.555556h-53.248v-260.778667c-19.569778 17.749333-44.145778 30.947556-74.183111 39.594667v-52.792889a193.024 193.024 0 0 0 46.421333-19.114667c16.384-10.012444 30.037333-20.48 40.96-31.857778z" p-id="10621" fill="#ffffff"></path></svg>