<?xml version="1.0" standalone="no"?><!DOCTYPE svg PUBLIC "-//W3C//DTD SVG 1.1//EN" "http://www.w3.org/Graphics/SVG/1.1/DTD/svg11.dtd"><svg t="1578628603891" class="icon" viewBox="0 0 1024 1024" version="1.1" xmlns="http://www.w3.org/2000/svg" p-id="2893" xmlns:xlink="http://www.w3.org/1999/xlink" width="20" height="20"><defs><style type="text/css"></style></defs><path d="M158.249961 614.402466c37.219322 0 67.372153 30.559802 67.372153 68.272422v273.065023c0 37.700288-30.152831 68.260089-67.372153 68.260089S90.865475 993.440198 90.865475 955.739911V682.674888a68.753387 68.753387 0 0 1 19.731914-48.269194 66.977515 66.977515 0 0 1 47.652572-20.003228zM394.083329 0.04933c37.20699 0 67.372153 30.572134 67.372153 68.272422v887.418159c0 37.700288-30.165163 68.260089-67.372153 68.260089s-67.322823-30.559802-67.322824-68.260089V68.272422c0-37.700288 30.103501-68.223092 67.322824-68.223092zM629.916696 273.077355c37.20699 0 67.384486 30.559802 67.384486 68.260089v614.402467c0 37.700288-30.177496 68.260089-67.384486 68.260089s-67.384486-30.559802-67.384486-68.260089v-614.402467c0-37.700288 30.165163-68.260089 67.384486-68.260089z m235.833368-136.544844a66.878855 66.878855 0 0 1 47.640239 20.003228 68.704057 68.704057 0 0 1 19.731914 48.269194v750.934978c0 37.700288-30.177496 68.260089-67.384486 68.260089s-67.384486-30.559802-67.384486-68.260089V204.767936a68.753387 68.753387 0 0 1 19.731914-48.269195 66.928185 66.928185 0 0 1 47.652572-20.003227z m0 0" p-id="2894" fill="#bfbfbf"></path></svg>