<?xml version="1.0" standalone="no"?><!DOCTYPE svg PUBLIC "-//W3C//DTD SVG 1.1//EN" "http://www.w3.org/Graphics/SVG/1.1/DTD/svg11.dtd"><svg t="1581765768575" class="icon" viewBox="0 0 1024 1024" version="1.1" xmlns="http://www.w3.org/2000/svg" p-id="1945" width="72" height="72" xmlns:xlink="http://www.w3.org/1999/xlink"><defs><style type="text/css"></style></defs><path d="M395.636364 325.818182a23.272727 23.272727 0 0 1 36.165818-19.362909l279.272727 186.181818a23.272727 23.272727 0 0 1 0 38.725818l-279.272727 186.181818A23.272727 23.272727 0 0 1 395.636364 698.181818V325.818182z m46.545454 328.890182L656.244364 512 442.181818 369.291636v285.416728z" p-id="1946" fill="#ffffff"></path><path d="M512 977.454545c257.070545 0 465.454545-208.384 465.454545-465.454545S769.070545 46.545455 512 46.545455 46.545455 254.929455 46.545455 512s208.384 465.454545 465.454545 465.454545z m0 46.545455C229.236364 1024 0 794.763636 0 512S229.236364 0 512 0s512 229.236364 512 512-229.236364 512-512 512z" p-id="1947" fill="#ffffff"></path></svg>