<?xml version="1.0" standalone="no"?><!DOCTYPE svg PUBLIC "-//W3C//DTD SVG 1.1//EN" "http://www.w3.org/Graphics/SVG/1.1/DTD/svg11.dtd"><svg t="1581769318219" class="icon" viewBox="0 0 1024 1024" version="1.1" xmlns="http://www.w3.org/2000/svg" p-id="5841" width="28" height="28" xmlns:xlink="http://www.w3.org/1999/xlink"><defs><style type="text/css"></style></defs><path d="M836.85564887 766.61437295c-1.20974117 95.56955895-97.72484493 88.58921283-139.30101019 61.37698732L295.15576481 567.16002255c-41.56226001-27.21222552-41.56226001-80.20445408 0-107.41668027L697.55463868 183.56080562c117.72033847-26.57259215 139.10633872 48.57041594 139.30101019 76.72818626 0.63963337 93.05274052 3.21207143 253.07230777 0 506.32538107zM790.42661367 244.93779294c-6.43804814-25.78000305-48.75118216-33.39998253-77.3817249-15.33729438l-355.96983865 245.49404335c-47.4441049 35.0268758-47.4441049 48.27840976 0 76.71428101l355.96983865 230.15674965c28.63054273 18.06268817 49.58548633 27.49032713 77.3817249 0V244.93779294zM203.93849359 837.04356155H185.2500773a13.90507192 13.90507192 0 0 1-13.90507191-13.9050719V200.88652499a13.90507192 13.90507192 0 0 1 13.90507191-13.90507189h18.68841629a13.90507192 13.90507192 0 0 1 13.90507191 13.9050719v622.25196465a13.90507192 13.90507192 0 0 1-13.90507191 13.9050719z" p-id="5842" fill="#ffffff"></path></svg>