<?xml version="1.0" standalone="no"?><!DOCTYPE svg PUBLIC "-//W3C//DTD SVG 1.1//EN" "http://www.w3.org/Graphics/SVG/1.1/DTD/svg11.dtd"><svg t="1581769335469" class="icon" viewBox="0 0 1024 1024" version="1.1" xmlns="http://www.w3.org/2000/svg" p-id="6054" width="28" height="28" xmlns:xlink="http://www.w3.org/1999/xlink"><defs><style type="text/css"></style></defs><path d="M187.14435113 257.38562705c1.20974117-95.56955894 97.72484493-88.58921283 139.30101019-61.37698732L728.84423519 456.83997745c41.56226001 27.21222552 41.56226001 80.20445409 0 107.41668027L326.44536132 840.43919437c-117.72033847 26.57259215-139.10633872-48.57041594-139.30101019-76.72818625-0.63963337-93.05274052-3.21207143-253.07230776 0-506.32538107zM233.57338633 779.06220706c6.43804814 25.78000305 48.75118216 33.39998253 77.3817249 15.33729438l355.96983865-245.49404335c47.4441049-35.0268758 47.4441049-48.27840976 0-76.71428101l-355.96983865-230.15674965c-28.63054273-18.06268817-49.58548633-27.49032713-77.3817249 0L233.57338633 779.06220706zM820.06150641 186.95643845L838.7499227 186.95643845a13.90507192 13.90507192 0 0 1 13.9050719 13.9050719L852.65499461 823.11347501a13.90507192 13.90507192 0 0 1-13.90507191 13.90507189l-18.68841629 0a13.90507192 13.90507192 0 0 1-13.90507191-13.90507189l-1e-8-622.25196466a13.90507192 13.90507192 0 0 1 13.90507192-13.9050719z" p-id="6055" fill="#ffffff"></path></svg>