<?xml version="1.0" standalone="no"?><!DOCTYPE svg PUBLIC "-//W3C//DTD SVG 1.1//EN" "http://www.w3.org/Graphics/SVG/1.1/DTD/svg11.dtd"><svg t="1578480973474" class="icon" viewBox="0 0 1024 1024" version="1.1" xmlns="http://www.w3.org/2000/svg" p-id="3934" xmlns:xlink="http://www.w3.org/1999/xlink" width="32" height="32"><defs><style type="text/css"></style></defs><path d="M813.6 306.4H310.5L419 197.2c13.3-13.3 13.3-34.9 0-48.3-13.2-13.3-34.7-13.3-48 0l-156 157c-17.5 15.8-17.5 43.2-17.5 53v396c0 18.8 15.3 34.1 33.9 34.1h582.1c18.7 0 33.9-15.4 33.9-34.1V340.5c0.1-18.7-15.2-34.1-33.8-34.1z" fill="#DAE9FF" p-id="3935"></path><path d="M792.2 293.3H298.4l106.5-107.2c13-13.1 13-34.3 0-47.4-13-13.1-34-13.1-47.1 0l-153.1 154c-17.2 15.5-17.2 42.4-17.2 52v388.7c0 18.4 15 33.5 33.3 33.5h571.4c18.3 0 33.3-15.1 33.3-33.5V326.8c0-18.4-15-33.5-33.3-33.5z" fill="#3889FF" p-id="3936"></path><path d="M370.5 621c-48.1 0-87-38.9-87-87.1 0-47.9 38.9-86.9 87-86.9s87 39 87 86.9c0 48.2-38.9 87.1-87 87.1z" fill="#DAE9FF" p-id="3937"></path><path d="M355.5 606c-48.1 0-87-38.9-87-87.1 0-47.9 38.9-86.9 87-86.9s87 39 87 86.9c0 48.2-38.9 87.1-87 87.1z" fill="#FFFFFF" p-id="3938"></path><path d="M734.7 489.5H557c-12.6 0-22.8-10.3-22.8-23 0-12.6 10.2-23 22.8-23h177.8c12.6 0 22.8 10.4 22.8 23 0 12.7-10.2 23-22.9 23z" fill="#DAE9FF" p-id="3939"></path><path d="M719.1 483.7h-173c-11 0-20-9-20-20.1 0-11 9-20.1 20-20.1h173c11 0 20 9.1 20 20.1-0.1 11.1-9 20.1-20 20.1z" fill="#FFFFFF" p-id="3940"></path><path d="M734.7 609.5H557c-12.6 0-22.8-10.3-22.8-23 0-12.6 10.2-23 22.8-23h177.8c12.6 0 22.8 10.4 22.8 23 0 12.7-10.2 23-22.9 23z" fill="#DAE9FF" p-id="3941"></path><path d="M719.1 603.7h-173c-11 0-20-9-20-20.1 0-11 9-20.1 20-20.1h173c11 0 20 9.1 20 20.1-0.1 11.1-9 20.1-20 20.1z" fill="#FFFFFF" p-id="3942"></path></svg>