<?xml version="1.0" standalone="no"?><!DOCTYPE svg PUBLIC "-//W3C//DTD SVG 1.1//EN" "http://www.w3.org/Graphics/SVG/1.1/DTD/svg11.dtd"><svg t="1578480906921" class="icon" viewBox="0 0 1024 1024" version="1.1" xmlns="http://www.w3.org/2000/svg" p-id="2639" xmlns:xlink="http://www.w3.org/1999/xlink" width="32" height="32"><defs><style type="text/css"></style></defs><path d="M512.446162 13.625322c-275.237645 0-498.377748 223.12987-498.377748 498.377748 0 275.255041 223.140103 498.372631 498.377748 498.372631 275.257088 0 498.372631-223.11759 498.372631-498.372631C1010.818793 236.755192 787.704273 13.625322 512.446162 13.625322zM786.439466 163.883511c33.015951 26.021653 62.237483 56.638975 86.705757 90.88801l7.665587 14.505365-37.498032 22.603811-72.306816-27.458375-20.209274-120.785947L786.439466 163.883511zM151.833057 254.648724c24.435529-34.17945 53.607942-64.739467 86.561471-90.720188l35.719526-20.290115L253.927293 264.422322l-72.306816 27.458375-37.517475-22.601764L151.833057 254.648724zM215.20334 837.281411l-14.253632-10.305717c-33.518395-33.150004-61.773925-71.607898-83.398432-114.015753l-8.680706-21.919219 116.786867 36.81958 17.139356 75.416644L215.20334 837.281411zM845.714478 803.851021l-16.261359 11.761881-27.612894-34.026978 17.139356-75.396177 106.429984-33.547047C906.546961 721.098295 879.402741 765.41257 845.714478 803.851021zM773.652232 664.614863 742.505861 801.732777l46.037523 56.713676c-75.721589 60.426231-171.689291 96.550986-276.097222 96.550986-93.993744 0-181.146687-29.27679-252.846682-79.2039l42.550095-52.392254-31.146371-137.123031L84.665285 627.52513c-9.921977-36.829813-15.216563-75.55786-15.216563-115.523083 0-69.028143 15.791661-134.36829 43.954071-192.607716l56.516178 34.072003 131.493823-49.939389 32.994462-197.288319C388.892171 82.296331 449.116811 69.004607 512.446162 69.004607c63.33856 0 123.570363 13.296841 178.062442 37.244252l32.994462 197.276039 131.490753 49.942459 56.502875-34.05256c28.157293 58.235332 43.944861 123.567293 43.944861 192.588273 0 33.954323-3.826142 67.014276-11.059893 98.777701L773.652232 664.614863zM318.632991 458.571137l56.520271 223.433792 274.644127 0 56.458873-221.911112L512.763386 290.502303 318.632991 458.571137zM603.562369 621.50809 420.162362 621.50809l-37.7293-136.689149 129.632429-102.826923L641.248689 485.74094 603.562369 621.50809z" p-id="2640"></path></svg>