<?xml version="1.0" standalone="no"?><!DOCTYPE svg PUBLIC "-//W3C//DTD SVG 1.1//EN" "http://www.w3.org/Graphics/SVG/1.1/DTD/svg11.dtd"><svg t="1581930770398" class="icon" viewBox="0 0 1072 1024" version="1.1" xmlns="http://www.w3.org/2000/svg" p-id="8503" width="31.40625" height="30" xmlns:xlink="http://www.w3.org/1999/xlink"><defs><style type="text/css"></style></defs><path d="M894.52196 664.886209c-68.635818 0-124.722423 36.712645-150.811601 93.735239L411.980198 617.55209a195.394513 195.394513 0 0 0 29.997427-106.339216c0-16.4017-1.926742-32.859161-5.83499-48.325869l211.797209-164.295807c28.06969 21.244941 63.846346 33.848919 103.476486 33.84892 95.770515 0 167.322832-71.553313 167.322832-166.222549 0-94.724996-71.552317-166.222548-167.322832-166.222548S585.08226 71.492573 585.08226 166.216574c0 24.162437 4.843241 46.399127 12.603977 65.718322L402.29272 381.70297c-38.638391-57.957586-102.485733-98.522719-175.029799-98.522718A214.108303 214.108303 0 0 0 12.603978 496.73692v0.935988a214.108303 214.108303 0 0 0 214.659939 214.548417c44.527151 0 86.083037-11.558459 119.987716-32.8034l380.992018 162.37006c4.844237 89.825994 74.470808 156.53507 166.278309 156.53507 95.771511 0 166.333074-71.553313 166.333074-166.222548 0-94.724996-71.553313-167.213302-166.277313-167.213302z" fill="#ffffff" p-id="8504"></path></svg>