<?xml version="1.0" standalone="no"?><!DOCTYPE svg PUBLIC "-//W3C//DTD SVG 1.1//EN" "http://www.w3.org/Graphics/SVG/1.1/DTD/svg11.dtd"><svg t="1581928103422" class="icon" viewBox="0 0 1024 1024" version="1.1" xmlns="http://www.w3.org/2000/svg" p-id="6845" width="35" height="35" xmlns:xlink="http://www.w3.org/1999/xlink"><defs><style type="text/css"></style></defs><path d="M705.024 512m-64.128 0a1.002 1.002 0 1 0 128.256 0 1.002 1.002 0 1 0-128.256 0ZM512.704 512m-64.128 0a1.002 1.002 0 1 0 128.256 0 1.002 1.002 0 1 0-128.256 0ZM320.512 512m-64.128 0a1.002 1.002 0 1 0 128.256 0 1.002 1.002 0 1 0-128.256 0ZM512 1024c-282.368 0-512-229.76-512-512.064C0 229.632 229.632 0 512 0c282.24 0 512 229.632 512 511.936C1024 794.24 794.24 1024 512 1024zM512 38.144c-261.312 0-473.856 212.48-473.856 473.792 0 261.248 212.544 473.856 473.856 473.856 261.184 0 473.792-212.608 473.792-473.856C985.792 250.624 773.184 38.144 512 38.144z" p-id="6846" fill="#ffffff"></path></svg>