<?xml version="1.0" standalone="no"?><!DOCTYPE svg PUBLIC "-//W3C//DTD SVG 1.1//EN" "http://www.w3.org/Graphics/SVG/1.1/DTD/svg11.dtd"><svg t="1581927967860" class="icon" viewBox="0 0 1024 1024" version="1.1" xmlns="http://www.w3.org/2000/svg" p-id="5193" width="35" height="35" xmlns:xlink="http://www.w3.org/1999/xlink"><defs><style type="text/css"></style></defs><path d="M980.223 219.57q-4.553 5.58-9.692 10.573a30.397 30.397 0 0 1-21.44 8.958 30.985 30.985 0 0 1-21.587-8.958 30.397 30.397 0 0 1 0-43.026 132.163 132.163 0 0 0 19.09-23.79 421.011 421.011 0 0 0-86.052-85.905 143.323 143.323 0 0 0-23.496 18.943 30.25 30.25 0 1 1-42.879-42.88c3.377-3.377 6.755-6.607 10.28-9.691a264.325 264.325 0 0 0-113.22-26.58 215.278 215.278 0 0 0-153.896 62.998 16.74 16.74 0 0 1-1.615 1.615C499.297 119.567 306.486 307.68 75.202 341.6a70.78 70.78 0 0 0-56.683 18.503c-32.16 32.307-22.32 92.66 29.37 179.741a1306.941 1306.941 0 0 0 195.013 241.124l18.21 17.915a136.568 136.568 0 0 0 194.131 158.742h0.735c66.815 44.054 119.827 65.788 158.595 65.788a67.697 67.697 0 0 0 49.634-18.65 71.074 71.074 0 0 0 18.356-57.711c34.215-230.697 222.033-423.067 259.773-459.632l1.615-1.616a215.719 215.719 0 0 0 62.117-174.601 275.339 275.339 0 0 0-25.845-91.633z m-359.63 741.726c-4.992 2.937-39.502 2.643-117.477-45.816a136.568 136.568 0 0 0-207.643-176.217l-3.377 3.524-5.874-5.874C101.635 552.326 51.413 423.394 61.839 404.011c20.118-11.014 148.903 39.06 334.665 224.089s234.956 313.812 224.09 333.196zM775.664 197.69a20.852 20.852 0 0 1-28.195 8.077c-17.768-9.692-77.094-9.545-137.155 54.333-71.22 75.627-193.692 132.163-198.831 134.365a20.118 20.118 0 0 1-8.664 1.91 20.705 20.705 0 0 1-8.517-39.502c1.174 0 120.268-55.509 185.908-125.114 74.452-79.151 154.337-80.18 187.084-62.264a20.705 20.705 0 0 1 8.37 28.048zM949.972 73.604c19.53 19.53 17.034 56.536-3.378 89.283a338.777 338.777 0 0 1 33.629 56.243c52.277-60.355 58.738-142.59 12.775-188.552S864.654-8.484 804.153 44.235a344.063 344.063 0 0 1 56.389 33.187c32.747-20.412 69.752-23.055 89.43-3.818z" p-id="5194" fill="#ffffff"></path></svg>