<?xml version="1.0" standalone="no"?><!DOCTYPE svg PUBLIC "-//W3C//DTD SVG 1.1//EN" "http://www.w3.org/Graphics/SVG/1.1/DTD/svg11.dtd"><svg t="1581928582608" class="icon" viewBox="0 0 1024 1024" version="1.1" xmlns="http://www.w3.org/2000/svg" p-id="7678" width="35" height="35" xmlns:xlink="http://www.w3.org/1999/xlink"><defs><style type="text/css"></style></defs><path d="M800.419364 406.296563c-0.592494 8.244778-1.470491 16.738219-2.76088 25.731034-21.429055 148.487869-139.152247 256.275781-279.894711 256.275781L471.921701 688.303378l-8.400321 8.758478c31.609928 58.651818 90.37431 96.961332 156.423609 96.961332l45.562708 0 90.164532 94.121658c5.834892 6.084579 13.728676 9.320273 21.793352 9.320273 3.774977 0 7.580652-0.709151 11.249205-2.183735 11.423167-4.568039 18.896372-15.657608 18.896372-27.962865l0-76.942393c83.931574-17.410532 146.068773-96.262414 146.068773-191.495382C953.680956 501.475296 887.071909 420.769182 800.419364 406.296563z" p-id="7679" fill="#ffffff"></path><path d="M754.69395 425.837618c2.098801-14.5903 3.109828-27.703969 3.109828-40.142256 0-142.887314-107.682511-259.162528-240.038982-259.162528L310.375421 126.532835c-132.369773 0-240.058424 116.275213-240.058424 259.162528 0 128.286782 84.771709 234.120179 198.393489 255.293407l0 109.249193c0 14.351869 8.734942 27.255761 22.037922 32.598442 4.260024 1.697665 8.679683 2.543939 13.063527 2.543939 9.429767 0 18.637476-3.800559 25.394367-10.849092l124.165928-129.660058 64.392566 0C636.726188 644.872217 736.358349 552.759309 754.69395 425.837618zM243.647671 305.594023l337.3861 0c9.431813 0 17.118889 8.117888 17.118889 18.093077 0 9.979282-7.687076 18.083867-17.118889 18.083867L243.647671 341.770967c-9.448186 0-17.127076-8.104585-17.127076-18.083867C226.519572 313.711911 234.198461 305.594023 243.647671 305.594023zM446.215226 473.469452 243.647671 473.469452c-9.448186 0-17.127076-8.099469-17.127076-18.062378 0-9.999748 7.67889-18.117636 17.127076-18.117636l202.567555 0c9.429767 0 17.132192 8.117888 17.132192 18.117636C463.347418 465.369983 455.644993 473.469452 446.215226 473.469452z" p-id="7680" fill="#ffffff"></path></svg>